<?xml version="1.0" encoding="UTF-8"?>
<svg width="40" height="40" viewBox="0 0 40 40" fill="none" xmlns="http://www.w3.org/2000/svg">
  <!-- Brain Icon -->
  <path d="M20 8c-6.627 0-12 5.373-12 12 0 3.314 1.343 6.314 3.515 8.485C13.686 30.657 16.686 32 20 32s6.314-1.343 8.485-3.515C30.657 26.314 32 23.314 32 20c0-6.627-5.373-12-12-12zm0 22c-5.523 0-10-4.477-10-10s4.477-10 10-10 10 4.477 10 10-4.477 10-10 10z" fill="#3B82F6"/>
  <path d="M20 12c-4.418 0-8 3.582-8 8 0 2.209.895 4.209 2.343 5.657C15.791 27.105 17.791 28 20 28s4.209-.895 5.657-2.343C27.105 24.209 28 22.209 28 20c0-4.418-3.582-8-8-8zm0 14c-3.314 0-6-2.686-6-6s2.686-6 6-6 6 2.686 6 6-2.686 6-6 6z" fill="#93C5FD"/>
  <circle cx="20" cy="20" r="2" fill="#1E40AF"/>
  
  <!-- Neural Network Lines -->
  <path d="M12 16l4 4M16 20l4 4M24 24l4-4M28 16l-4 4" stroke="#3B82F6" stroke-width="2" stroke-linecap="round"/>
  <circle cx="12" cy="16" r="2" fill="#3B82F6"/>
  <circle cx="16" cy="20" r="2" fill="#3B82F6"/>
  <circle cx="24" cy="24" r="2" fill="#3B82F6"/>
  <circle cx="28" cy="16" r="2" fill="#3B82F6"/>
</svg> 