<?xml version="1.0" encoding="UTF-8"?>
<svg width="40" height="40" viewBox="0 0 40 40" fill="none" xmlns="http://www.w3.org/2000/svg">
  <!-- Chart Background -->
  <rect x="8" y="8" width="24" height="24" rx="2" fill="#F59E0B" fill-opacity="0.1"/>
  
  <!-- Bar Chart -->
  <rect x="12" y="24" width="3" height="8" fill="#F59E0B"/>
  <rect x="18" y="20" width="3" height="12" fill="#F59E0B"/>
  <rect x="24" y="16" width="3" height="16" fill="#F59E0B"/>
  
  <!-- Line Chart -->
  <path d="M12 24l6-4 6 8 6-12" stroke="#D97706" stroke-width="2" stroke-linecap="round" stroke-linejoin="round" fill="none"/>
  <circle cx="12" cy="24" r="2" fill="#D97706"/>
  <circle cx="18" cy="20" r="2" fill="#D97706"/>
  <circle cx="24" cy="28" r="2" fill="#D97706"/>
  <circle cx="30" cy="16" r="2" fill="#D97706"/>
  
  <!-- Trophy -->
  <path d="M20 4v4M16 8h8M14 12h12" stroke="#F59E0B" stroke-width="2" stroke-linecap="round"/>
  <path d="M12 12l4 4c2 2 4 2 8 0l4-4" stroke="#F59E0B" stroke-width="2" stroke-linecap="round" stroke-linejoin="round"/>
</svg> 