<?xml version="1.0" encoding="UTF-8"?>
<svg width="600" height="400" viewBox="0 0 600 400" fill="none" xmlns="http://www.w3.org/2000/svg">
  <!-- Background -->
  <rect width="600" height="400" rx="20" fill="#F3F4F6"/>
  
  <!-- Decorative Elements -->
  <circle cx="300" cy="200" r="150" fill="#3B82F6" fill-opacity="0.1"/>
  <circle cx="300" cy="200" r="100" fill="#3B82F6" fill-opacity="0.2"/>
  
  <!-- Code Elements -->
  <g transform="translate(150, 100)">
    <!-- Code Window -->
    <rect x="0" y="0" width="300" height="200" rx="8" fill="#1F2937"/>
    <rect x="0" y="0" width="300" height="30" rx="8 8 0 0" fill="#374151"/>
    <circle cx="15" cy="15" r="6" fill="#EF4444"/>
    <circle cx="35" cy="15" r="6" fill="#F59E0B"/>
    <circle cx="55" cy="15" r="6" fill="#10B981"/>
    
    <!-- Code Lines -->
    <g fill="#9CA3AF" font-family="monospace" font-size="14">
      <text x="20" y="55">class Solution {</text>
      <text x="20" y="80">  public int[]</text>
      <text x="40" y="105">twoSum(int[] nums,</text>
      <text x="40" y="130">int target) {</text>
      <text x="60" y="155">// AI-powered</text>
      <text x="60" y="180">// solution</text>
    </g>
  </g>
  
  <!-- Decorative Dots -->
  <circle cx="100" cy="300" r="4" fill="#3B82F6"/>
  <circle cx="120" cy="300" r="4" fill="#3B82F6"/>
  <circle cx="140" cy="300" r="4" fill="#3B82F6"/>
  
  <!-- Decorative Lines -->
  <line x1="200" y1="350" x2="400" y2="350" stroke="#3B82F6" stroke-width="2" stroke-dasharray="4 4"/>
</svg> 